<svg width="16" height="16" viewBox="0 0 16 16" fill="none" xmlns="http://www.w3.org/2000/svg">
<g id="Component 3">
<path id="Vector" d="M10.6666 10.8333C10.6666 12.03 9.69665 13 8.49998 13H3.49998C2.30331 13 1.33331 12.03 1.33331 10.8333V5.16667C1.33331 3.97 2.30331 3 3.49998 3H8.49998C9.69665 3 10.6666 3.97 10.6666 5.16667V10.8333ZM14.413 4.39833C14.2563 4.30967 14.064 4.312 13.9093 4.40467L11.3333 5.95033V10.0497L13.9096 11.5953C13.9886 11.643 14.0773 11.6667 14.1666 11.6667C14.2516 11.6667 14.3366 11.645 14.413 11.6017C14.5696 11.513 14.6666 11.347 14.6666 11.1667V4.83333C14.6666 4.653 14.5696 4.487 14.413 4.39833Z" fill="#9CA3AF"/>
</g>
</svg>
