<svg width="56" height="79" viewBox="0 0 56 79" fill="none" xmlns="http://www.w3.org/2000/svg">
<path d="M19 34.5C19 32.2909 20.7909 30.5 23 30.5H24.3333V35.8333H19V34.5Z" fill="white"/>
<path d="M19 36.8333H24.3333V42.1667H19V36.8333Z" fill="white"/>
<path d="M19 43.1667H24.3333V48.5H23C20.7909 48.5 19 46.7091 19 44.5V43.1667Z" fill="white"/>
<path d="M25.3333 30.5H30.6667V35.8333H25.3333V30.5Z" fill="white"/>
<path d="M25.3333 36.8333H30.6667V42.1667H25.3333V36.8333Z" fill="white"/>
<path d="M25.3333 43.1667H30.6667V48.5H25.3333V43.1667Z" fill="white"/>
<path d="M31.6667 30.5H33C35.2091 30.5 37 32.2909 37 34.5V35.8333H31.6667V30.5Z" fill="white"/>
<path d="M31.6667 36.8333H37V42.1667H31.6667V36.8333Z" fill="white"/>
<path d="M31.6667 43.1667H37V44.5C37 46.7091 35.2091 48.5 33 48.5H31.6667V43.1667Z" fill="white"/>
</svg>
