<svg width="76" height="56" viewBox="0 0 76 56" fill="none" xmlns="http://www.w3.org/2000/svg">
<g clip-path="url(#clip0_4574_244)">
<rect width="76" height="56" rx="8" fill="#374151" fill-opacity="0.5"/>
<g clip-path="url(#clip1_4574_244)">
<path d="M28 17C25.5236 17 23.5 19.0236 23.5 21.5V29C23.5 31.4764 25.5236 33.5 28 33.5C30.4763 33.5 32.5 31.4764 32.5 29V21.5C32.5 19.0236 30.4763 17 28 17ZM21.2382 26.4893C21.0395 26.4924 20.8501 26.5742 20.7117 26.7169C20.5733 26.8595 20.4971 27.0513 20.5 27.25V29C20.5 32.8803 23.467 36.0841 27.25 36.4619V38.75C27.2485 38.8494 27.2669 38.9481 27.304 39.0403C27.341 39.1325 27.3961 39.2164 27.4658 39.2872C27.5356 39.358 27.6188 39.4142 27.7105 39.4526C27.8022 39.4909 27.9006 39.5107 28 39.5107C28.0993 39.5107 28.1978 39.4909 28.2894 39.4526C28.3811 39.4142 28.4643 39.358 28.5341 39.2872C28.6039 39.2164 28.6589 39.1325 28.6959 39.0403C28.733 38.9481 28.7514 38.8494 28.75 38.75V36.4619C32.5329 36.0841 35.5 32.8803 35.5 29V27.25C35.5014 27.1506 35.483 27.0519 35.4459 26.9597C35.4089 26.8675 35.3539 26.7836 35.2841 26.7128C35.2143 26.642 35.1311 26.5858 35.0394 26.5474C34.9478 26.5091 34.8493 26.4893 34.75 26.4893C34.6506 26.4893 34.5522 26.5091 34.4605 26.5474C34.3688 26.5858 34.2856 26.642 34.2158 26.7128C34.1461 26.7836 34.091 26.8675 34.054 26.9597C34.0169 27.0519 33.9985 27.1506 34 27.25V29C34 32.2927 31.3698 34.9474 28.0888 34.9951C28.0555 34.9909 28.0219 34.989 27.9882 34.9893C27.9608 34.9897 27.9334 34.9917 27.9062 34.9951C24.6275 34.9448 22 32.291 22 29V27.25C22.0014 27.1496 21.9827 27.05 21.9449 26.957C21.9071 26.8639 21.851 26.7795 21.78 26.7085C21.709 26.6376 21.6244 26.5816 21.5314 26.544C21.4383 26.5063 21.3386 26.4877 21.2382 26.4893Z" fill="#9CA3AF"/>
<mask id="mask0_4574_244" style="mask-type:alpha" maskUnits="userSpaceOnUse" x="16" y="25" width="24" height="15">
<rect x="16" y="25" width="24" height="15" fill="#C4C4C4"/>
</mask>
<g mask="url(#mask0_4574_244)">
<path d="M28 17C25.5236 17 23.5 19.0236 23.5 21.5V29C23.5 31.4764 25.5236 33.5 28 33.5C30.4763 33.5 32.5 31.4764 32.5 29V21.5C32.5 19.0236 30.4763 17 28 17ZM21.2382 26.4893C21.0395 26.4924 20.8501 26.5742 20.7117 26.7169C20.5733 26.8595 20.4971 27.0513 20.5 27.25V29C20.5 32.8803 23.467 36.0841 27.25 36.4619V38.75C27.2485 38.8494 27.2669 38.9481 27.304 39.0403C27.341 39.1325 27.3961 39.2164 27.4658 39.2872C27.5356 39.358 27.6188 39.4142 27.7105 39.4526C27.8022 39.4909 27.9006 39.5107 28 39.5107C28.0993 39.5107 28.1978 39.4909 28.2894 39.4526C28.3811 39.4142 28.4643 39.358 28.5341 39.2872C28.6039 39.2164 28.6589 39.1325 28.6959 39.0403C28.733 38.9481 28.7514 38.8494 28.75 38.75V36.4619C32.5329 36.0841 35.5 32.8803 35.5 29V27.25C35.5014 27.1506 35.483 27.0519 35.4459 26.9597C35.4089 26.8675 35.3539 26.7836 35.2841 26.7128C35.2143 26.642 35.1311 26.5858 35.0394 26.5474C34.9478 26.5091 34.8493 26.4893 34.75 26.4893C34.6506 26.4893 34.5522 26.5091 34.4605 26.5474C34.3688 26.5858 34.2856 26.642 34.2158 26.7128C34.1461 26.7836 34.091 26.8675 34.054 26.9597C34.0169 27.0519 33.9985 27.1506 34 27.25V29C34 32.2927 31.3698 34.9474 28.0888 34.9951C28.0555 34.9909 28.0219 34.989 27.9882 34.9893C27.9608 34.9897 27.9334 34.9917 27.9062 34.9951C24.6275 34.9448 22 32.291 22 29V27.25C22.0014 27.1496 21.9827 27.05 21.9449 26.957C21.9071 26.8639 21.851 26.7795 21.78 26.7085C21.709 26.6376 21.6244 26.5816 21.5314 26.544C21.4383 26.5063 21.3386 26.4877 21.2382 26.4893Z" fill="#2D8CFF"/>
</g>
</g>
<path d="M53.9947 24.875C53.8971 24.8764 53.8039 24.9158 53.7349 24.9848L48.8599 29.8598C48.8239 29.8944 48.7952 29.9358 48.7754 29.9816C48.7556 30.0274 48.7452 30.0767 48.7446 30.1266C48.7441 30.1764 48.7536 30.2259 48.7725 30.2721C48.7913 30.3183 48.8192 30.3603 48.8545 30.3956C48.8898 30.4308 48.9317 30.4587 48.9779 30.4776C49.0241 30.4964 49.0736 30.5059 49.1235 30.5054C49.1734 30.5049 49.2227 30.4944 49.2685 30.4746C49.3143 30.4548 49.3556 30.4261 49.3902 30.3901L54.0001 25.7802L58.6099 30.3901C58.6445 30.4261 58.6859 30.4548 58.7317 30.4746C58.7775 30.4944 58.8267 30.5049 58.8766 30.5054C58.9265 30.5059 58.976 30.4964 59.0222 30.4776C59.0684 30.4587 59.1104 30.4308 59.1456 30.3956C59.1809 30.3603 59.2088 30.3183 59.2277 30.2721C59.2465 30.2259 59.256 30.1764 59.2555 30.1266C59.255 30.0767 59.2445 30.0274 59.2247 29.9816C59.2049 29.9358 59.1762 29.8944 59.1402 29.8598L54.2652 24.9848C54.2297 24.9494 54.1875 24.9214 54.1411 24.9025C54.0946 24.8836 54.0448 24.8743 53.9947 24.875Z" fill="#9CA3AF"/>
</g>
<rect x="0.5" y="0.5" width="75" height="55" rx="7.5" stroke="#4B5563" stroke-opacity="0.5"/>
<defs>
<clipPath id="clip0_4574_244">
<rect width="76" height="56" rx="8" fill="white"/>
</clipPath>
<clipPath id="clip1_4574_244">
<rect width="24" height="24" fill="white" transform="translate(16 16)"/>
</clipPath>
</defs>
</svg>
