<svg width="24" height="25" viewBox="0 0 24 25" fill="none" xmlns="http://www.w3.org/2000/svg">
<g id="Icons" opacity="0.25">
<path id="Vector" d="M5.74996 3.49995C4.24007 3.49995 2.99996 4.74007 2.99996 6.24995V9.24995C2.99855 9.34934 3.01691 9.44801 3.05397 9.54023C3.09103 9.63246 3.14605 9.7164 3.21584 9.78718C3.28562 9.85796 3.36877 9.91416 3.46047 9.95252C3.55216 9.99088 3.65056 10.0106 3.74996 10.0106C3.84935 10.0106 3.94775 9.99088 4.03944 9.95252C4.13114 9.91416 4.21429 9.85796 4.28408 9.78718C4.35386 9.7164 4.40888 9.63246 4.44594 9.54023C4.483 9.44801 4.50136 9.34934 4.49996 9.24995V6.24995C4.49996 5.55084 5.05084 4.99995 5.74996 4.99995H8.74996C8.84934 5.00136 8.94801 4.983 9.04024 4.94594C9.13246 4.90888 9.21641 4.85386 9.28718 4.78407C9.35796 4.71429 9.41416 4.63113 9.45252 4.53944C9.49088 4.44775 9.51064 4.34935 9.51064 4.24995C9.51064 4.15056 9.49088 4.05216 9.45252 3.96046C9.41416 3.86877 9.35796 3.78562 9.28718 3.71583C9.21641 3.64605 9.13246 3.59103 9.04024 3.55397C8.94801 3.51691 8.84934 3.49855 8.74996 3.49995H5.74996ZM15.25 3.49995C15.1506 3.49855 15.0519 3.51691 14.9597 3.55397C14.8674 3.59103 14.7835 3.64605 14.7127 3.71583C14.642 3.78562 14.5858 3.86877 14.5474 3.96046C14.509 4.05216 14.4893 4.15056 14.4893 4.24995C14.4893 4.34935 14.509 4.44775 14.5474 4.53944C14.5858 4.63113 14.642 4.71429 14.7127 4.78407C14.7835 4.85386 14.8674 4.90888 14.9597 4.94594C15.0519 4.983 15.1506 5.00136 15.25 4.99995H18.25C18.9491 4.99995 19.5 5.55084 19.5 6.24995V9.24995C19.4986 9.34934 19.5169 9.44801 19.554 9.54023C19.591 9.63246 19.6461 9.7164 19.7158 9.78718C19.7856 9.85796 19.8688 9.91416 19.9605 9.95252C20.0522 9.99088 20.1506 10.0106 20.25 10.0106C20.3494 10.0106 20.4478 9.99088 20.5394 9.95252C20.6311 9.91416 20.7143 9.85796 20.7841 9.78718C20.8539 9.7164 20.9089 9.63246 20.9459 9.54023C20.983 9.44801 21.0014 9.34934 21 9.24995V6.24995C21 4.74007 19.7598 3.49995 18.25 3.49995H15.25ZM3.73824 14.9892C3.53949 14.9923 3.35011 15.0742 3.21168 15.2168C3.07326 15.3595 2.9971 15.5512 2.99996 15.75V18.75C2.99996 20.2598 4.24007 21.5 5.74996 21.5H8.74996C8.84934 21.5014 8.94801 21.483 9.04024 21.4459C9.13246 21.4089 9.21641 21.3539 9.28718 21.2841C9.35796 21.2143 9.41416 21.1311 9.45252 21.0394C9.49088 20.9477 9.51064 20.8493 9.51064 20.75C9.51064 20.6506 9.49088 20.5522 9.45252 20.4605C9.41416 20.3688 9.35796 20.2856 9.28718 20.2158C9.21641 20.146 9.13246 20.091 9.04024 20.054C8.94801 20.0169 8.84934 19.9985 8.74996 20H5.74996C5.05084 20 4.49996 19.4491 4.49996 18.75V15.75C4.5014 15.6496 4.48267 15.5499 4.44489 15.4569C4.4071 15.3639 4.35103 15.2794 4.28 15.2085C4.20897 15.1375 4.12441 15.0816 4.03135 15.0439C3.93829 15.0062 3.83862 14.9876 3.73824 14.9892ZM20.2382 14.9892C20.0395 14.9923 19.8501 15.0742 19.7117 15.2168C19.5733 15.3595 19.4971 15.5512 19.5 15.75V18.75C19.5 19.4491 18.9491 20 18.25 20H15.25C15.1506 19.9985 15.0519 20.0169 14.9597 20.054C14.8674 20.091 14.7835 20.146 14.7127 20.2158C14.642 20.2856 14.5858 20.3688 14.5474 20.4605C14.509 20.5522 14.4893 20.6506 14.4893 20.75C14.4893 20.8493 14.509 20.9477 14.5474 21.0394C14.5858 21.1311 14.642 21.2143 14.7127 21.2841C14.7835 21.3539 14.8674 21.4089 14.9597 21.4459C15.0519 21.483 15.1506 21.5014 15.25 21.5H18.25C19.7598 21.5 21 20.2598 21 18.75V15.75C21.0014 15.6496 20.9827 15.5499 20.9449 15.4569C20.9071 15.3639 20.851 15.2794 20.78 15.2085C20.709 15.1375 20.6244 15.0816 20.5314 15.0439C20.4383 15.0062 20.3386 14.9876 20.2382 14.9892Z" fill="#9CA3AF"/>
</g>
</svg>
