<svg width="12" height="12" viewBox="0 0 12 12" fill="none" xmlns="http://www.w3.org/2000/svg">
<path d="M6.00006 0.5C4.76006 0.5 3.75006 1.51 3.75006 2.75V6.5C3.75006 6.5525 3.75244 6.60478 3.75494 6.65479L4.12506 6.28516V6.28467L4.43756 5.97266L7.50006 2.91016V2.90967L7.86236 2.54736L8.18756 2.22266C7.95006 1.23516 7.05756 0.5 6.00006 0.5ZM10.6177 0.996582C10.5203 0.99942 10.4279 1.04005 10.3599 1.10986L1.10992 10.3599C1.07393 10.3944 1.0452 10.4358 1.02541 10.4816C1.00561 10.5274 0.995156 10.5767 0.994648 10.6266C0.994141 10.6765 1.00359 10.726 1.02245 10.7721C1.04131 10.8183 1.0692 10.8603 1.10447 10.8956C1.13975 10.9309 1.18172 10.9587 1.22791 10.9776C1.2741 10.9965 1.32359 11.0059 1.37348 11.0054C1.42337 11.0049 1.47266 10.9944 1.51845 10.9747C1.56425 10.9549 1.60564 10.9261 1.6402 10.8901L3.36676 9.16357C3.96026 9.75171 4.74896 10.1408 5.62506 10.2285V11.375C5.62436 11.4247 5.63354 11.474 5.65207 11.5201C5.6706 11.5663 5.69811 11.6082 5.733 11.6436C5.76789 11.679 5.80947 11.7071 5.85531 11.7263C5.90116 11.7455 5.95036 11.7553 6.00006 11.7553C6.04976 11.7553 6.09896 11.7455 6.1448 11.7263C6.19065 11.7071 6.23223 11.679 6.26712 11.6436C6.30201 11.6082 6.32952 11.5663 6.34805 11.5201C6.36658 11.474 6.37576 11.4247 6.37506 11.375V10.231C8.26716 10.0421 9.75006 8.44092 9.75006 6.5V5.625C9.75006 5.4175 9.58256 5.25 9.37506 5.25C9.16756 5.25 9.00006 5.4175 9.00006 5.625V6.5C9.00006 8.14001 7.67885 9.4735 6.04449 9.49756C6.04027 9.497 6.03604 9.49651 6.0318 9.49609C6.0193 9.49498 6.00675 9.49449 5.9942 9.49463C5.98163 9.49481 5.96909 9.49563 5.9566 9.49707C5.95595 9.49723 5.9553 9.49739 5.95465 9.49756C5.95448 9.49756 5.95432 9.49756 5.95416 9.49756C5.15255 9.48535 4.42698 9.15846 3.89654 8.63379L4.42828 8.10205C4.8345 8.50069 5.38751 8.75 6.00006 8.75C7.24006 8.75 8.25006 7.74 8.25006 6.5V4.28027L10.8902 1.64014C10.9443 1.58745 10.9812 1.51965 10.9962 1.44563C11.0111 1.3716 11.0033 1.29479 10.9739 1.22525C10.9445 1.15571 10.8947 1.09667 10.8312 1.05587C10.7676 1.01507 10.6932 0.994408 10.6177 0.996582ZM2.62506 5.25C2.41756 5.25 2.25006 5.4175 2.25006 5.625V6.5C2.25006 6.9925 2.34514 7.46258 2.51764 7.89258L3.10992 7.2998C3.03742 7.0448 3.00006 6.7775 3.00006 6.5V5.625C3.00006 5.4175 2.83256 5.25 2.62506 5.25Z" fill="white"/>
</svg>
