<svg width="17" height="18" viewBox="0 0 17 18" fill="none" xmlns="http://www.w3.org/2000/svg">
<path d="M11.9238 0.0156396C11.8078 0.00060742 11.688 0.00144641 11.5693 0.0185693C11.3321 0.0528148 11.0993 0.153527 10.9092 0.326187C10.9062 0.328768 10.9033 0.331372 10.9004 0.333999L6.66992 4.29689C6.53059 4.42746 6.34794 4.50002 6.15723 4.50002H2.25C1.01625 4.50002 0 5.51627 0 6.75002V11.25C0 12.4838 1.01625 13.5 2.25 13.5H6.15723C6.34794 13.5 6.53059 13.5726 6.66992 13.7031L10.9004 17.666C10.9033 17.6687 10.9062 17.6713 10.9092 17.6738C11.2894 18.0192 11.8413 18.076 12.2559 17.8926C12.6704 17.7092 13 17.2627 13 16.749V1.25099C13 0.737332 12.6705 0.290881 12.2559 0.107437C12.1522 0.0615753 12.0399 0.0306718 11.9238 0.0156396ZM11.5 1.82716V16.1729L7.69531 12.6084C7.27865 12.218 6.72852 12 6.15723 12H2.25C1.82675 12 1.5 11.6733 1.5 11.25V6.75002C1.5 6.32677 1.82675 6.00002 2.25 6.00002H6.15723C6.72852 6.00002 7.27865 5.78205 7.69531 5.39162L11.5 1.82716ZM15.5059 5.12892C15.3758 5.12715 15.2475 5.15923 15.1336 5.22201C15.0197 5.28479 14.9241 5.37612 14.8561 5.48702C14.7881 5.59792 14.7502 5.72459 14.746 5.85459C14.7417 5.98459 14.7714 6.11346 14.832 6.22853C15.2573 7.06386 15.5 8.00123 15.5 9.00002C15.5 9.9988 15.2573 10.9362 14.832 11.7715C14.7835 11.8596 14.7531 11.9565 14.7428 12.0565C14.7324 12.1566 14.7423 12.2577 14.7718 12.3538C14.8013 12.45 14.8498 12.5392 14.9145 12.6162C14.9792 12.6932 15.0587 12.7564 15.1483 12.8021C15.2379 12.8477 15.3358 12.8749 15.4361 12.882C15.5365 12.889 15.6372 12.8758 15.7323 12.8432C15.8274 12.8106 15.915 12.7591 15.9899 12.6919C16.0647 12.6248 16.1253 12.5432 16.168 12.4522C16.6947 11.4175 17 10.2432 17 9.00002C17 7.7568 16.6947 6.58254 16.168 5.54787C16.1069 5.42379 16.0128 5.319 15.896 5.24507C15.7791 5.17114 15.6441 5.13094 15.5059 5.12892Z" fill="#9CA3AF"/>
</svg>
