<svg width="12" height="12" viewBox="0 0 12 12" fill="none" xmlns="http://www.w3.org/2000/svg">
<path d="M10.5403 6.12975C10.8035 5.8665 10.922 5.49075 10.8575 5.1245C10.793 4.75825 10.553 4.44525 10.2155 4.28825L9.73128 4.0625C9.58278 3.9935 9.49253 3.83725 9.50703 3.67375L9.55378 3.142C9.58628 2.77125 9.43578 2.40725 9.15078 2.168C8.86578 1.929 8.48028 1.84425 8.12128 1.93975L7.60528 2.0785C7.44728 2.12025 7.27753 2.05925 7.18353 1.92475L6.87728 1.48725C6.66428 1.18225 6.31453 1 5.94253 1C5.57053 1 5.22078 1.18225 5.00753 1.48675L4.70128 1.92425C4.60728 2.05875 4.43803 2.11975 4.27928 2.078L3.76353 1.93925C3.40403 1.8435 3.01928 1.92825 2.73428 2.1675C2.44928 2.40675 2.29878 2.77075 2.33128 3.1415L2.37803 3.6735C2.39228 3.83675 2.30228 3.993 2.15353 4.0625L1.66928 4.288C1.33178 4.445 1.09178 4.75775 1.02728 5.12425C0.962775 5.49075 1.08128 5.8665 1.34453 6.1295L1.72228 6.507C1.83828 6.62275 1.86953 6.8005 1.80028 6.949L1.57428 7.43325C1.41703 7.7705 1.43403 8.16425 1.62028 8.4865C1.80653 8.80875 2.13878 9.0205 2.50953 9.05275L3.04178 9.09925C3.20503 9.1135 3.34303 9.2295 3.38553 9.38775L3.52353 9.9035C3.61978 10.263 3.88578 10.5535 4.23553 10.6807C4.58503 10.808 4.97553 10.7567 5.28103 10.543L5.71828 10.2362C5.85253 10.1427 6.03303 10.1417 6.16728 10.2362L6.60478 10.543C6.79903 10.6792 7.02853 10.7495 7.25978 10.7495C7.39128 10.7495 7.52328 10.7267 7.65003 10.6807C7.99953 10.5532 8.26578 10.2627 8.36203 9.9035L8.50003 9.38775C8.54228 9.22925 8.68053 9.11325 8.84378 9.09925L9.37553 9.05275C9.74628 9.0205 10.0788 8.80875 10.2648 8.4865C10.4508 8.16425 10.468 7.7705 10.3105 7.433L10.0845 6.949C10.0153 6.8005 10.0465 6.62275 10.1625 6.507L10.5403 6.12975ZM8.01528 5.14025L5.51528 7.64025C5.44203 7.7135 5.34603 7.75 5.25003 7.75C5.15403 7.75 5.05803 7.7135 4.98478 7.64025L3.73478 6.39025C3.58828 6.24375 3.58828 6.0065 3.73478 5.86C3.88128 5.7135 4.11853 5.7135 4.26503 5.86L5.25003 6.84475L7.48478 4.61C7.63128 4.4635 7.86853 4.4635 8.01503 4.61C8.16153 4.7565 8.16153 4.99375 8.01528 5.14025Z" fill="#2D8CFF"/>
</svg>
