<svg width="8" height="8" viewBox="0 0 8 8" fill="none" xmlns="http://www.w3.org/2000/svg">
<g id="Icons">
<g id="Vector">
<path d="M5.75362 4.16667C5.75267 4.10161 5.72639 4.03949 5.68038 3.99349L2.43038 0.743488C2.40734 0.719495 2.37975 0.70034 2.34922 0.687144C2.31868 0.673948 2.28583 0.666977 2.25257 0.666639C2.21931 0.666301 2.18631 0.672602 2.15552 0.685175C2.12473 0.697747 2.09675 0.716337 2.07323 0.739857C2.04971 0.763376 2.03112 0.791352 2.01855 0.822146C2.00598 0.85294 1.99967 0.885933 2.00001 0.919193C2.00035 0.952453 2.00732 0.985311 2.02052 1.01584C2.03371 1.04637 2.05287 1.07397 2.07686 1.097L5.1501 4.17025L2.07686 7.24349C2.05287 7.26653 2.03371 7.29412 2.02052 7.32465C2.00732 7.35518 2.00035 7.38804 2.00001 7.4213C1.99968 7.45456 2.00598 7.48755 2.01855 7.51835C2.03112 7.54914 2.04971 7.57712 2.07323 7.60064C2.09675 7.62416 2.12473 7.64275 2.15552 7.65532C2.18631 7.66789 2.21931 7.67419 2.25257 7.67385C2.28583 7.67352 2.31868 7.66654 2.34922 7.65335C2.37975 7.64015 2.40734 7.621 2.43038 7.59701L5.68038 4.347C5.70402 4.32337 5.72269 4.29523 5.73527 4.26426C5.74785 4.23328 5.75409 4.2001 5.75362 4.16667Z" fill="#9CA3AF"/>
</g>
</g>
</svg>
