<svg width="16" height="16" viewBox="0 0 16 16" fill="none" xmlns="http://www.w3.org/2000/svg">
<g id="Icons">
<path id="Vector" d="M10.4961 1.34827C9.50972 1.34827 8.52343 1.7226 7.77471 2.47131L1.54359 8.70243C1.47961 8.76386 1.42853 8.83744 1.39334 8.91886C1.35815 9.00028 1.33956 9.0879 1.33866 9.1766C1.33776 9.26529 1.35456 9.35327 1.38809 9.43539C1.42161 9.5175 1.47119 9.59211 1.5339 9.65483C1.59662 9.71755 1.67123 9.76712 1.75334 9.80065C1.83546 9.83417 1.92344 9.85098 2.01214 9.85007C2.10083 9.84917 2.18845 9.83058 2.26987 9.79539C2.35129 9.7602 2.42487 9.70912 2.4863 9.64514L8.71742 3.41402C9.70534 2.42611 11.2868 2.42611 12.2747 3.41402C13.2626 4.40193 13.2626 5.9834 12.2747 6.97131L6.26951 12.9765C5.78797 13.4581 5.02708 13.4581 4.54555 12.9765C4.06401 12.495 4.06401 11.7341 4.54555 11.2526L9.3268 6.47131C9.39078 6.40988 9.44186 6.3363 9.47705 6.25488C9.51224 6.17347 9.53083 6.08584 9.53174 5.99715C9.53264 5.90846 9.51583 5.82047 9.48231 5.73836C9.44878 5.65624 9.39921 5.58163 9.33649 5.51892C9.27377 5.4562 9.19917 5.40662 9.11705 5.3731C9.03493 5.33957 8.94695 5.32277 8.85825 5.32367C8.76956 5.32457 8.68194 5.34316 8.60052 5.37835C8.5191 5.41354 8.44552 5.46462 8.38409 5.52861L3.60284 10.3099C2.6117 11.301 2.6117 12.9281 3.60284 13.9192C4.59397 14.9104 6.22108 14.9104 7.21221 13.9192L13.2174 7.91402C14.7148 6.4166 14.7148 3.96873 13.2174 2.47131C12.4687 1.7226 11.4824 1.34827 10.4961 1.34827Z" fill="#9CA3AF"/>
</g>
</svg>
