<svg width="16" height="16" viewBox="0 0 16 16" fill="none" xmlns="http://www.w3.org/2000/svg">
<g id="Component 2">
<path id="Vector" d="M7.99998 1.33337C4.324 1.33337 1.33331 4.32407 1.33331 8.00004C1.33331 11.676 4.324 14.6667 7.99998 14.6667C11.676 14.6667 14.6666 11.676 14.6666 8.00004C14.6666 4.32407 11.676 1.33337 7.99998 1.33337ZM7.99998 2.33337C11.1355 2.33337 13.6666 4.8645 13.6666 8.00004C13.6666 11.1356 11.1355 13.6667 7.99998 13.6667C4.86444 13.6667 2.33331 11.1356 2.33331 8.00004C2.33331 4.8645 4.86444 2.33337 7.99998 2.33337ZM5.16665 5.33337C5.10039 5.33244 5.03461 5.34468 4.97312 5.36938C4.91164 5.39409 4.85568 5.43077 4.8085 5.47729C4.76131 5.52382 4.72384 5.57925 4.69827 5.64038C4.67269 5.70151 4.65953 5.76711 4.65953 5.83337C4.65953 5.89964 4.67269 5.96524 4.69827 6.02637C4.72384 6.0875 4.76131 6.14293 4.8085 6.18945C4.85568 6.23598 4.91164 6.27266 4.97312 6.29736C5.03461 6.32207 5.10039 6.33431 5.16665 6.33337H6.49998C6.56624 6.33431 6.63202 6.32207 6.6935 6.29736C6.75499 6.27266 6.81095 6.23598 6.85813 6.18945C6.90532 6.14293 6.94278 6.0875 6.96836 6.02637C6.99393 5.96524 7.0071 5.89964 7.0071 5.83337C7.0071 5.76711 6.99393 5.70151 6.96836 5.64038C6.94278 5.57925 6.90532 5.52382 6.85813 5.47729C6.81095 5.43077 6.75499 5.39409 6.6935 5.36938C6.63202 5.34468 6.56624 5.33244 6.49998 5.33337H5.16665ZM9.49998 5.33337C9.43372 5.33244 9.36794 5.34468 9.30646 5.36938C9.24497 5.39409 9.18901 5.43077 9.14183 5.47729C9.09464 5.52382 9.05718 5.57925 9.0316 5.64038C9.00603 5.70151 8.99286 5.76711 8.99286 5.83337C8.99286 5.89964 9.00603 5.96524 9.0316 6.02637C9.05718 6.0875 9.09464 6.14293 9.14183 6.18945C9.18901 6.23598 9.24497 6.27266 9.30646 6.29736C9.36794 6.32207 9.43372 6.33431 9.49998 6.33337H10.8333C10.8996 6.33431 10.9654 6.32207 11.0268 6.29736C11.0883 6.27266 11.1443 6.23598 11.1915 6.18945C11.2386 6.14293 11.2761 6.0875 11.3017 6.02637C11.3273 5.96524 11.3404 5.89964 11.3404 5.83337C11.3404 5.76711 11.3273 5.70151 11.3017 5.64038C11.2761 5.57925 11.2386 5.52382 11.1915 5.47729C11.1443 5.43077 11.0883 5.39409 11.0268 5.36938C10.9654 5.34468 10.8996 5.33244 10.8333 5.33337H9.49998ZM5.16665 8.00004C5.03404 8.00005 4.90687 8.05274 4.81311 8.1465C4.71934 8.24027 4.66666 8.36744 4.66665 8.50004C4.66665 10.335 6.12953 12 7.99998 12C9.87043 12 11.3333 10.335 11.3333 8.50004C11.3333 8.36744 11.2806 8.24027 11.1869 8.1465C11.0931 8.05274 10.9659 8.00005 10.8333 8.00004H5.16665ZM5.76691 9.00004H10.2331C9.99831 10.084 9.09089 11 7.99998 11C6.90907 11 6.00165 10.084 5.76691 9.00004Z" fill="#9CA3AF"/>
</g>
</svg>
