<svg width="12" height="12" viewBox="0 0 12 12" fill="none" xmlns="http://www.w3.org/2000/svg">
<g id="Icons">
<g id="Vector">
<path d="M8.63043 6.25006C8.629 6.15247 8.58959 6.05929 8.52057 5.99029L3.64557 1.11529C3.61101 1.0793 3.56962 1.05057 3.52383 1.03078C3.47803 1.01098 3.42874 1.00053 3.37885 1.00002C3.32896 0.999512 3.27947 1.00896 3.23328 1.02782C3.18709 1.04668 3.14513 1.07457 3.10985 1.10985C3.07457 1.14513 3.04668 1.18709 3.02782 1.23328C3.00896 1.27947 2.99951 1.32896 3.00002 1.37885C3.00053 1.42874 3.01098 1.47803 3.03078 1.52383C3.05057 1.56962 3.0793 1.61101 3.11529 1.64557L7.72516 6.25543L3.11529 10.8653C3.0793 10.8998 3.05057 10.9412 3.03078 10.987C3.01098 11.0328 3.00053 11.0821 3.00002 11.132C2.99951 11.1819 3.00896 11.2314 3.02782 11.2776C3.04668 11.3238 3.07457 11.3657 3.10985 11.401C3.14513 11.4363 3.18709 11.4642 3.23328 11.483C3.27947 11.5019 3.32896 11.5113 3.37885 11.5108C3.42874 11.5103 3.47803 11.4999 3.52383 11.4801C3.56962 11.4603 3.61101 11.4316 3.64557 11.3956L8.52057 6.52057C8.55603 6.48511 8.58403 6.44291 8.6029 6.39644C8.62177 6.34998 8.63113 6.3002 8.63043 6.25006Z" fill="#9CA3AF"/>
</g>
</g>
</svg>
