<svg width="24" height="24" viewBox="0 0 24 24" fill="none" xmlns="http://www.w3.org/2000/svg">
<g id="Icons">
<path id="Vector" d="M12.75 1.5C11.8775 1.5 11.1215 2.01305 10.7491 2.74707C10.4462 2.59411 10.1097 2.5 9.75005 2.5C8.5163 2.5 7.50005 3.51625 7.50005 4.75V13.9912C6.76621 13.5731 5.85429 13.0453 5.20708 12.7637C4.84252 12.605 4.43783 12.5 4.00786 12.5C2.98202 12.5 2.24964 13.0318 1.90337 13.5518C1.55709 14.0717 1.50396 14.6055 1.50396 14.6055C1.4914 14.7236 1.50708 14.843 1.5497 14.9538C1.59231 15.0647 1.66064 15.1639 1.74907 15.2432C1.74907 15.2432 5.92027 18.9986 7.09575 20.2422C8.0831 21.2864 9.43236 22.0299 10.961 22H15.2178C18.3882 22.0287 20.9714 19.4453 21.0001 16.2822C21.0001 16.2799 21.0001 16.2777 21.0001 16.2754V6.75C21.0001 5.51625 19.9838 4.5 18.7501 4.5C18.4824 4.5 18.2283 4.5551 17.9893 4.64258C17.9313 3.45879 16.9471 2.5 15.7501 2.5C15.3852 2.5 15.0533 2.60948 14.7471 2.7666C14.377 2.02598 13.6274 1.5 12.75 1.5ZM12.75 3C13.1733 3 13.5001 3.32675 13.5001 3.75V4.75V11.25C13.4986 11.3494 13.517 11.4481 13.5541 11.5403C13.5911 11.6325 13.6461 11.7164 13.7159 11.7872C13.7857 11.858 13.8689 11.9142 13.9606 11.9526C14.0523 11.9909 14.1507 12.0107 14.2501 12.0107C14.3494 12.0107 14.4478 11.9909 14.5395 11.9526C14.6312 11.9142 14.7144 11.858 14.7842 11.7872C14.854 11.7164 14.909 11.6325 14.946 11.5403C14.9831 11.4481 15.0015 11.3494 15.0001 11.25V4.75C15.0001 4.32675 15.3268 4 15.7501 4C16.1733 4 16.5001 4.32675 16.5001 4.75V6.75V11.75C16.4986 11.8494 16.517 11.9481 16.5541 12.0403C16.5911 12.1325 16.6461 12.2164 16.7159 12.2872C16.7857 12.358 16.8689 12.4142 16.9606 12.4526C17.0523 12.4909 17.1507 12.5107 17.2501 12.5107C17.3494 12.5107 17.4478 12.4909 17.5395 12.4526C17.6312 12.4142 17.7144 12.358 17.7842 12.2872C17.854 12.2164 17.909 12.1325 17.946 12.0403C17.9831 11.9481 18.0015 11.8494 18.0001 11.75V6.75C18.0001 6.32675 18.3268 6 18.7501 6C19.1733 6 19.5001 6.32675 19.5001 6.75V16.2686C19.4787 18.6285 17.5841 20.5213 15.2315 20.5C15.2292 20.5 15.2269 20.5 15.2247 20.5H10.9463C10.9415 20.5 10.9366 20.5 10.9317 20.5C9.90657 20.5201 8.95313 20.0224 8.18657 19.2119H8.1856C6.93016 17.8839 3.60014 14.9029 3.11626 14.4688C3.13595 14.4276 3.12177 14.4273 3.15142 14.3828C3.28302 14.1852 3.4292 14 4.00786 14C4.1919 14 4.39401 14.0463 4.60845 14.1396C5.17217 14.3849 6.37272 15.0637 7.13286 15.4961C7.93552 15.9541 9.00005 15.3305 9.00005 14.4092V4.75C9.00005 4.32675 9.3268 4 9.75005 4C10.1733 4 10.5 4.32675 10.5 4.75V11.25C10.4986 11.3494 10.517 11.4481 10.5541 11.5403C10.5911 11.6325 10.6461 11.7164 10.7159 11.7872C10.7857 11.858 10.8689 11.9142 10.9606 11.9526C11.0523 11.9909 11.1507 12.0107 11.25 12.0107C11.3494 12.0107 11.4478 11.9909 11.5395 11.9526C11.6312 11.9142 11.7144 11.858 11.7842 11.7872C11.854 11.7164 11.909 11.6325 11.946 11.5403C11.9831 11.4481 12.0015 11.3494 12 11.25V4.75V3.75C12 3.32675 12.3268 3 12.75 3Z" fill="#9CA3AF"/>
</g>
</svg>
