<svg width="24" height="24" viewBox="0 0 24 24" fill="none" xmlns="http://www.w3.org/2000/svg">
<g id="Component 2">
<mask id="mask0_4574_249" style="mask-type:alpha" maskUnits="userSpaceOnUse" x="0" y="9" width="24" height="15">
<rect id="Rectangle 25" y="9" width="24" height="15" fill="#C4C4C4"/>
</mask>
<g mask="url(#mask0_4574_249)">
<path id="Vector" d="M12 1C9.5236 1 7.49995 3.02364 7.49995 5.5V13C7.49995 15.4764 9.5236 17.5 12 17.5C14.4763 17.5 16.5 15.4764 16.5 13V5.5C16.5 3.02364 14.4763 1 12 1ZM5.23824 10.4893C5.03949 10.4924 4.85011 10.5742 4.71168 10.7169C4.57326 10.8595 4.4971 11.0513 4.49996 11.25V13C4.49996 16.8803 7.46697 20.0841 11.25 20.4619V22.75C11.2485 22.8494 11.2669 22.9481 11.304 23.0403C11.341 23.1325 11.3961 23.2164 11.4658 23.2872C11.5356 23.358 11.6188 23.4142 11.7105 23.4526C11.8022 23.4909 11.9006 23.5107 12 23.5107C12.0993 23.5107 12.1978 23.4909 12.2894 23.4526C12.3811 23.4142 12.4643 23.358 12.5341 23.2872C12.6039 23.2164 12.6589 23.1325 12.6959 23.0403C12.733 22.9481 12.7514 22.8494 12.75 22.75V20.4619C16.5329 20.0841 19.5 16.8803 19.5 13V11.25C19.5014 11.1506 19.483 11.0519 19.4459 10.9597C19.4089 10.8675 19.3539 10.7836 19.2841 10.7128C19.2143 10.642 19.1311 10.5858 19.0394 10.5474C18.9478 10.5091 18.8493 10.4893 18.75 10.4893C18.6506 10.4893 18.5522 10.5091 18.4605 10.5474C18.3688 10.5858 18.2856 10.642 18.2158 10.7128C18.1461 10.7836 18.091 10.8675 18.054 10.9597C18.0169 11.0519 17.9985 11.1506 18 11.25V13C18 16.2927 15.3698 18.9474 12.0888 18.9951C12.0555 18.9909 12.0219 18.989 11.9882 18.9893C11.9608 18.9897 11.9334 18.9917 11.9062 18.9951C8.62752 18.9448 5.99996 16.291 5.99996 13V11.25C6.0014 11.1496 5.98267 11.05 5.94489 10.957C5.9071 10.8639 5.85103 10.7795 5.78 10.7085C5.70897 10.6376 5.62441 10.5816 5.53135 10.544C5.43829 10.5063 5.33862 10.4877 5.23824 10.4893Z" fill="#2D8CFF"/>
</g>
</g>
</svg>
