<svg width="16" height="16" viewBox="0 0 16 16" fill="none" xmlns="http://www.w3.org/2000/svg">
<g id="Component 2">
<path id="Vector" d="M8.00002 0.666626C6.34668 0.666626 5.00002 2.01329 5.00002 3.66663V8.66663C5.00002 8.73663 5.00319 8.80634 5.00653 8.87301L5.50002 8.38017V8.37952L5.91668 7.9635L10 3.88017V3.87952L10.4831 3.39644L10.9167 2.9635C10.6 1.64683 9.41002 0.666626 8.00002 0.666626ZM14.1569 1.32874C14.0271 1.33252 13.9038 1.38669 13.8132 1.47978L1.47983 13.8131C1.43185 13.8592 1.39354 13.9144 1.36715 13.9754C1.34076 14.0365 1.32681 14.1022 1.32614 14.1687C1.32546 14.2353 1.33806 14.3012 1.36321 14.3628C1.38835 14.4244 1.42553 14.4804 1.47257 14.5274C1.51961 14.5744 1.57556 14.6116 1.63715 14.6368C1.69874 14.6619 1.76473 14.6745 1.83124 14.6738C1.89776 14.6732 1.96348 14.6592 2.02454 14.6328C2.08561 14.6064 2.14079 14.5681 2.18687 14.5201L4.48895 12.2181C5.28028 13.0022 6.33189 13.5211 7.50002 13.638V15.1666C7.49908 15.2329 7.51132 15.2987 7.53603 15.3601C7.56074 15.4216 7.59742 15.4776 7.64394 15.5248C7.69046 15.572 7.7459 15.6094 7.80702 15.635C7.86815 15.6606 7.93376 15.6737 8.00002 15.6737C8.06628 15.6737 8.13188 15.6606 8.19301 15.635C8.25414 15.6094 8.30958 15.572 8.3561 15.5248C8.40262 15.4776 8.4393 15.4216 8.46401 15.3601C8.48871 15.2987 8.50096 15.2329 8.50002 15.1666V13.6412C11.0228 13.3894 13 11.2545 13 8.66663V7.49996C13 7.22329 12.7767 6.99996 12.5 6.99996C12.2234 6.99996 12 7.22329 12 7.49996V8.66663C12 10.8533 10.2384 12.6313 8.05926 12.6634C8.05363 12.6626 8.04799 12.662 8.04234 12.6614C8.02567 12.6599 8.00894 12.6593 7.99221 12.6595C7.97545 12.6597 7.95872 12.6608 7.94208 12.6627C7.94121 12.6629 7.94034 12.6632 7.93947 12.6634C7.93925 12.6634 7.93904 12.6634 7.93882 12.6634C6.87001 12.6471 5.90258 12.2112 5.19533 11.5117L5.90431 10.8027C6.44594 11.3342 7.18329 11.6666 8.00002 11.6666C9.65335 11.6666 11 10.32 11 8.66663V5.70699L14.5202 2.18681C14.5923 2.11656 14.6416 2.02616 14.6615 1.92746C14.6814 1.82876 14.6711 1.72635 14.6318 1.63362C14.5925 1.5409 14.5262 1.46219 14.4415 1.40779C14.3567 1.35339 14.2576 1.32584 14.1569 1.32874ZM3.50002 6.99996C3.22335 6.99996 3.00002 7.22329 3.00002 7.49996V8.66663C3.00002 9.32329 3.12679 9.95006 3.35679 10.5234L4.1465 9.73303C4.04983 9.39303 4.00002 9.03663 4.00002 8.66663V7.49996C4.00002 7.22329 3.77668 6.99996 3.50002 6.99996Z" fill="#374151"/>
</g>
</svg>
